Coordinates
version=1
nRows=9
nColumns=36
inDegrees=yes

Units are S.I. units (second, meters, Newtons, ...)
If the header above contains a line with 'inDegrees', this indicates whether rotational values are in degrees (yes) or radians (no).

endheader
time	pelvis_tilt	pelvis_list	pelvis_rotation	pelvis_tx	pelvis_ty	pelvis_tz	hip_flexion_r	hip_adduction_r	hip_rotation_r	knee_angle_r	knee_angle_r_beta	ankle_angle_r	subtalar_angle_r	mtp_angle_r	hip_flexion_l	hip_adduction_l	hip_rotation_l	knee_angle_l	knee_angle_l_beta	ankle_angle_l	subtalar_angle_l	mtp_angle_l	lumbar_extension	lumbar_bending	lumbar_rotation	arm_flex_r	arm_add_r	arm_rot_r	elbow_flex_r	pro_sup_r	arm_flex_l	arm_add_l	arm_rot_l	elbow_flex_l	pro_sup_l
      0.00000000	      3.69524134	      2.17582474	     11.62764361	     -0.38434571	      1.28321473	     -0.05262449	    -10.81747669	      0.24145566	      5.73639540	      0.99074387	      0.01729174	     18.94691748	      2.15047670	     -6.80650714	     -7.84454163	     -0.79771398	      2.29864830	      0.74471724	      0.01299777	     14.79158362	      2.65009159	     -6.80650714	     -3.58335403	     -0.38571540	     -6.41813953	     -2.14597775	     -6.64260658	     12.02105392	     26.13403470	     74.37173449	      1.74862469	     -8.74678917	     21.48308462	     25.97564532	     67.99436350
      0.01666670	      0.38496949	      1.28583596	     10.05135395	     -0.38208183	      1.27550406	     -0.05166574	     -6.91560054	      0.15094871	      8.96729555	      1.02304072	      0.01785543	     18.49913877	      1.69417907	     -6.87947771	     -4.32305241	     -0.38661456	      1.17383722	      0.98439520	      0.01718094	     13.23112977	      2.19892098	     -6.87947771	      1.86897486	      0.55446145	     -5.75022081	     -3.20596083	     -6.53175743	      8.17578795	     26.91837802	     73.56190604	     -0.04022408	     -7.40303766	     16.84025105	     25.48423978	     67.24314374
      0.03333330	     -1.27396580	      1.47219135	      8.54969356	     -0.38138556	      1.27281244	     -0.04945821	     -5.42133752	     -0.69702512	      9.82118336	      0.63159260	      0.01102337	     18.08300229	      2.38447921	     -7.17422405	     -3.03492947	      0.22974115	     -1.12196537	      0.97331517	      0.01698755	     13.29364432	      4.37985487	     -7.17422405	      4.31241184	      0.06096585	     -4.72498109	     -3.55134926	     -6.04718786	      6.25402645	     27.29997294	     70.36882874	     -0.83957602	     -7.30832899	     15.01119825	     25.81428472	     65.54341855
      0.05000000	     -1.57152184	      1.87139356	      7.13926401	     -0.38841866	      1.26761981	     -0.04325022	     -4.66082426	     -1.23760079	     10.71951800	      0.52763749	      0.00920901	     18.24823286	      3.15555887	     -7.20623969	     -3.12969163	      0.79057128	     -2.60376284	      0.75810855	      0.01323149	     13.74497566	      5.97170802	     -7.20623969	      4.44709974	     -0.46952122	     -3.69363651	     -2.98291731	     -5.91953328	      6.43821993	     27.43937412	     72.44698362	     -0.67492811	     -7.99892103	     15.25524339	     25.87150351	     67.34464864
      0.06666670	     -1.88642758	      1.94417304	      6.07286255	     -0.38773841	      1.27351370	     -0.04174268	     -3.99693951	     -1.37706989	     11.50114534	      0.44852929	      0.00782831	     17.97601431	      3.47533400	     -7.27497268	     -3.11982846	      0.87253924	     -3.16817616	      0.64734667	      0.01129833	     13.93157327	      6.99734753	     -7.27497268	      4.73720019	     -0.55471283	     -2.65502887	     -2.94702546	     -5.88954816	      7.34936457	     27.51477871	     73.30490220	     -0.54080336	     -8.14339937	     15.45041769	     25.76378803	     68.33879220
      0.08333330	     -2.18295089	      1.97392413	      5.27177165	     -0.38190880	      1.26949681	     -0.04435848	     -3.58573144	     -1.47004043	     12.23592939	      0.38706175	      0.00675550	     18.19405445	      3.78249143	     -7.33026659	     -2.85313640	      0.96240676	     -3.84340831	      0.54426640	      0.00949924	     14.53246396	      8.02583311	     -7.33026659	      5.23854090	     -0.52464425	     -1.90099355	     -3.09021918	     -6.03966078	      8.61902360	     27.49359315	     72.49437998	     -0.70226795	     -8.00255973	     15.94808153	     25.46369609	     68.14070578
      0.10000000	     -2.29091840	      1.95947315	      4.71948374	     -0.38138468	      1.27249032	     -0.04354941	     -3.43184235	     -1.45461871	     12.74025385	      0.35490216	      0.00619421	     18.25660209	      4.14830902	     -7.36541679	     -2.82258078	      0.94915047	     -4.11472944	      0.50768863	      0.00886084	     14.76437635	      8.03734482	     -7.36541679	      5.59392275	     -0.42684709	     -1.24295857	     -3.38543773	     -6.17963054	      9.60800953	     27.60133172	     72.09182663	     -0.95096374	     -7.76618038	     16.19837020	     25.43987032	     68.07444258
      0.11666670	     -2.31627386	      1.88802669	      4.41472622	     -0.38227116	      1.27002642	     -0.04305797	     -3.46092001	     -1.40442671	     13.38300299	      0.34334577	      0.00599251	     18.19423775	      3.99759817	     -7.38389773	     -2.95181665	      0.85794034	     -4.56017294	      0.50022647	      0.00873060	     15.03615240	      8.14849192	     -7.38389773	      5.87609252	     -0.22555277	     -0.82424013	     -3.54925583	     -6.39537090	     10.51537162	     27.64628357	     72.02114327	     -1.05739141	     -7.56323718	     16.48495176	     25.40093701	     68.19451455
      0.13333330	     -2.43653449	      1.87774039	      4.10883953	     -0.38183395	      1.26740885	     -0.04286224	     -3.36105029	     -1.45964437	     13.94462021	      0.34058457	      0.00594432	     18.23050846	      3.78323755	     -7.41452193	     -2.84802674	      0.82666659	     -5.21700150	      0.52009013	      0.00907729	     15.13928015	      8.40257654	     -7.41452193	      6.47083121	     -0.11933243	     -0.59496858	     -3.69411023	     -6.78047124	     12.56891833	     27.74212598	     72.02331528	     -1.38643321	     -7.59087297	     17.35249137	     25.50364841	     68.70231093
